<svg xmlns="http://www.w3.org/2000/svg" width="40" height="39.999" viewBox="0 0 40 39.999">
  <g id="cat" transform="translate(0 0)" opacity="0.6">
    <rect id="Retângulo_186" data-name="Retângulo 186" width="40" height="39.999" transform="translate(0 0)" fill="none" opacity="0"/>
    <g id="Icone_-_Camadas" data-name="Icone - Camadas" transform="translate(-128.209 -371.99)" fill="none">
      <path d="M137.041,386.972l10.68,4.845a1.174,1.174,0,0,0,.976,0l10.68-4.845a1.025,1.025,0,0,0,0-1.836l-10.683-4.85a1.172,1.172,0,0,0-.975,0l-10.677,4.846a1.025,1.025,0,0,0,0,1.836Zm22.336,4.048-2.663-1.208-7.411,3.359a2.641,2.641,0,0,1-2.187,0l-7.411-3.363-2.663,1.207a1.023,1.023,0,0,0,0,1.834l10.68,4.841a1.174,1.174,0,0,0,.976,0l10.68-4.841a1.024,1.024,0,0,0,0-1.834Zm0,5.859-2.653-1.2-7.417,3.364a2.646,2.646,0,0,1-2.187,0l-7.416-3.364-2.663,1.2a1.023,1.023,0,0,0,0,1.834l10.679,4.84a1.172,1.172,0,0,0,.975,0l10.68-4.84a1.024,1.024,0,0,0,0-1.834Z" stroke="none"/>
      <path d="M 148.2057342529297 380.1806945800781 C 148.0393524169922 380.1806945800781 147.8729858398438 380.2161254882812 147.7181854248047 380.2869567871094 L 137.0413818359375 385.1325378417969 C 136.5346069335938 385.3843688964844 136.3274993896484 385.9993896484375 136.5794677734375 386.5060729980469 C 136.6791076660156 386.7068481445312 136.8413543701172 386.8683776855469 137.0413818359375 386.9680786132812 L 137.0413818359375 386.9723205566406 L 147.7210388183594 391.817138671875 C 148.0306396484375 391.9588012695312 148.3865051269531 391.9588012695312 148.6968078613281 391.817138671875 L 159.3765106201172 386.9723205566406 C 159.88330078125 386.7203674316406 160.0896606445312 386.10546875 159.8384552001953 385.5986633300781 C 159.7388153076172 385.3986511230469 159.5765075683594 385.2364196777344 159.3765106201172 385.1367492675781 L 148.6932983398438 380.2869567871094 C 148.5384826660156 380.2161254882812 148.3721008300781 380.1806945800781 148.2057342529297 380.1806945800781 M 139.7047119140625 389.8086242675781 L 137.0413818359375 391.0157165527344 C 136.5346069335938 391.2669982910156 136.3274993896484 391.8812255859375 136.5787353515625 392.387939453125 C 136.6783752441406 392.5879211425781 136.8406677246094 392.7509460449219 137.0413818359375 392.8498840332031 L 147.7210388183594 397.6903991699219 C 148.0306396484375 397.8320617675781 148.3865051269531 397.8320617675781 148.6968078613281 397.6903991699219 L 159.3765106201172 392.8498840332031 C 159.88330078125 392.5993041992188 160.0896606445312 391.9851684570312 159.8391418457031 391.4783630371094 C 159.7395172119141 391.277587890625 159.5772399902344 391.1153564453125 159.3765106201172 391.0157165527344 L 159.3772277832031 391.02001953125 L 156.7139129638672 389.8122253417969 L 149.30322265625 393.171630859375 C 148.6085815429688 393.4876708984375 147.8114318847656 393.4876708984375 147.1160583496094 393.171630859375 L 139.7047119140625 389.8086242675781 M 139.7040100097656 395.6768798828125 L 137.0413818359375 396.8747863769531 C 136.5346069335938 397.1259765625 136.3274993896484 397.7402954101562 136.5787353515625 398.2470092773438 C 136.6783752441406 398.4469909667969 136.8406677246094 398.6100463867188 137.0413818359375 398.7090148925781 L 147.7203369140625 403.5494689941406 C 148.0298767089844 403.6911010742188 148.3857879638672 403.6911010742188 148.6954193115234 403.5494689941406 L 159.3750915527344 398.7090148925781 C 159.8818664550781 398.4584045410156 160.0889434814453 397.8441772460938 159.8377380371094 397.3373718261719 C 159.7380828857422 397.1366882324219 159.5757904052734 396.9744262695312 159.3750915527344 396.8747863769531 L 159.3772277832031 396.8790588378906 L 156.7245788574219 395.6768798828125 L 149.3075256347656 399.04052734375 C 148.6128997802734 399.3558654785156 147.8150024414062 399.3559265136719 147.1203460693359 399.04052734375 L 139.7040100097656 395.6768798828125 M 148.2057342529297 379.1806945800781 C 148.5197296142578 379.1806945800781 148.8237457275391 379.2469482421875 149.1093292236328 379.3775939941406 L 159.8225402832031 384.2417297363281 C 160.2146911621094 384.4371643066406 160.5382232666016 384.7607116699219 160.7335357666016 385.1527404785156 C 161.2298583984375 386.1541137695312 160.8204040527344 387.3712463378906 159.8216857910156 387.8677673339844 L 159.7896423339844 387.8829956054688 L 157.3357543945312 388.9961853027344 L 158.0818023681641 389.3345336914062 L 158.0683288574219 389.2538757324219 L 159.8211212158203 390.1199951171875 C 160.2150115966797 390.3155212402344 160.5395202636719 390.6400756835938 160.7349395751953 391.0339050292969 C 161.2302093505859 392.0358581542969 160.8193511962891 393.2520446777344 159.8197326660156 393.7463073730469 L 159.7893218994141 393.7606811523438 L 157.4663848876953 394.8135681152344 L 159.8197631835938 395.9790954589844 C 160.2134246826172 396.1745300292969 160.5378875732422 396.4989624023438 160.7333831787109 396.892578125 C 160.9738464355469 397.3777160644531 161.0109710693359 397.9266357421875 160.8382263183594 398.4388427734375 C 160.6653747558594 398.9513549804688 160.3031768798828 399.3656616210938 159.8183746337891 399.6054077148438 L 159.7879028320312 399.6198120117188 L 149.1082305908203 404.4602966308594 C 148.8258209228516 404.5894775390625 148.5218353271484 404.6557006835938 148.2078704833984 404.6557006835938 C 147.8938751220703 404.6557006835938 147.5898742675781 404.5894775390625 147.3043365478516 404.4588317871094 L 136.59912109375 399.6058959960938 C 136.2053833007812 399.4117431640625 135.8802795410156 399.0875244140625 135.6836853027344 398.6929626464844 C 135.4426422119141 398.2068176269531 135.4054870605469 397.6578979492188 135.5782012939453 397.1455993652344 C 135.7509307861328 396.63330078125 136.1128387451172 396.2189331054688 136.5972747802734 395.9788208007812 L 136.631103515625 395.9628295898438 L 139.0681304931641 394.8664245605469 L 136.5992279052734 393.746826171875 C 136.2054443359375 393.5527038574219 135.8802947998047 393.2284851074219 135.6836853027344 392.8338928222656 C 135.1871032714844 391.8323669433594 135.5972595214844 390.6156005859375 136.5971221923828 390.1198120117188 L 136.6285705566406 390.1048889160156 L 139.0784759521484 388.9945373535156 L 136.0413818359375 387.6167602539062 L 136.0413818359375 387.4563598632812 C 135.8973846435547 387.3074035644531 135.7760620117188 387.13671875 135.6837005615234 386.9505920410156 C 135.4431915283203 386.4669494628906 135.4055480957031 385.917724609375 135.5780944824219 385.4048767089844 C 135.7505035400391 384.8923950195312 136.1121215820312 384.4776611328125 136.5963439941406 384.2369995117188 L 136.6281127929688 384.221923828125 L 147.3049163818359 379.3763427734375 C 147.5876922607422 379.2469482421875 147.8917083740234 379.1806945800781 148.2057342529297 379.1806945800781 Z" stroke="none" fill="#4e5d66"/>
    </g>
  </g>
</svg>
