<svg xmlns="http://www.w3.org/2000/svg" width="40" height="39.999" viewBox="0 0 40 39.999">
  <g id="menu" transform="translate(9.5 14.242)">
    <path id="Caminho_375" data-name="Caminho 375" d="M2,8A1,1,0,0,1,3,7H21a1,1,0,0,1,0,2H3A1,1,0,0,1,2,8Z" transform="translate(-2 -7.242)" fill="#4e5d66" opacity="0.83"/>
    <path id="Caminho_376" data-name="Caminho 376" d="M2,12a1,1,0,0,1,1-1H21a1,1,0,0,1,0,2H3A1,1,0,0,1,2,12Z" transform="translate(-2 -7)" fill="#4e5d66"/>
    <path id="Caminho_377" data-name="Caminho 377" d="M3,15a1,1,0,0,0,0,2H15a1,1,0,0,0,0-2Z" transform="translate(-2 -7)" fill="#4e5d66"/>
    <rect id="Retângulo_6042" data-name="Retângulo 6042" width="40" height="39.999" transform="translate(-9.5 -14.242)" fill="none" opacity="0"/>
  </g>
</svg>
